<svg version="1.1" viewBox="0 0 132 132" xmlns="http://www.w3.org/2000/svg">
 <defs>
  <linearGradient id="linearGradient3782" x1="400" x2="310" y1="242.36" y2="242.36" gradientTransform="matrix(.97778 0 0 1 7.3889 .50002)" gradientUnits="userSpaceOnUse">
   <stop stop-color="#e2e2e2" offset="0"/>
   <stop stop-color="#fff" offset=".33766"/>
   <stop stop-color="#dcdcdc" offset="1"/>
  </linearGradient>
 </defs>
 <g transform="translate(-289,-181.36)">
  <rect x="290" y="182.36" width="130" height="130" rx="8" ry="8" color="#000000" fill="#c8c8c8" stroke="#000" stroke-width="2"/>
  <rect x="310.5" y="188.86" width="88" height="94" rx="8" ry="8" color="#000000" fill="url(#linearGradient3782)" stroke="#000"/>
  <path d="m294.28 186.41c-1.0469 0.9779-1.6875 2.3791-1.6875 3.9688v114c0 3.0471 2.3592 5.4062 5.4062 5.4062h114c1.4905 0 2.8156-0.56665 3.7812-1.5l-18.875-25.625c-1.7461 1.4422-3.975 2.3125-6.4062 2.3125h-72c-5.5573 0-10.094-4.5365-10.094-10.094v-78c0-2.4868 0.90447-4.7683 2.4062-6.5312z" color="#000000" fill-opacity=".16751"/>
 </g>
</svg>
