<?xml version="1.0" encoding="UTF-8"?>
<svg version="1.1" viewBox="0 0 512 512" xmlns="http://www.w3.org/2000/svg">
 <path d="m256 0c-141.38 0-256 114.61-256 256 0 141.38 114.61 256 256 256 141.38 0 256-114.61 256-256 0-141.38-114.61-256-256-256zm0 64c106.04 0 192 85.96 192 192s-85.96 192-192 192-192-85.96-192-192 85.96-192 192-192zm0 64c-59.65 0-109.76 40.79-123.97 96h247.94c-14.21-55.213-64.324-96-123.97-96zm-123.97 160c11.58 44.989 46.981 80.389 91.971 91.969v-91.969zm155.97 0v91.971c44.99-11.58 80.391-46.981 91.971-91.971h-91.969z" fill="rgb(130, 189, 23)"/>
</svg>
