<?xml version="1.0" encoding="UTF-8" standalone="no"?>
<svg
   version="1.1"
   viewBox="0 0 512 512"
   xmlns="http://www.w3.org/2000/svg"
   xmlns:svg="http://www.w3.org/2000/svg">

  <path
     d="M 256,0 C 114.62,0 0,114.61 0,256 0,397.38 114.61,512 256,512 397.38,512 512,397.39 512,256 512,114.62 397.39,0 256,0 Z m 0,64 c 106.04,0 192,85.96 192,192 0,106.04 -85.96,192 -192,192 C 149.96,448 64,362.04 64,256 64,149.96 149.96,64 256,64 Z"
     fill="#82bd17"
 />
  <path
     d="m 256,128 c -59.65,0 -109.76,40.79 -123.97,96 H 379.97 C 365.76,168.787 315.646,128 256,128 Z M 132.03,288 c 11.58,44.989 46.981,80.389 91.971,91.969 V 288 Z M 288,288 v 91.971 C 332.99,368.391 368.391,332.99 379.971,288 h -91.969 z"
     fill="#cc52ff"/>
</svg>
