<?xml version="1.0" encoding="UTF-8" standalone="no"?>
<!-- Created with Inkscape (http://www.inkscape.org/) -->

<svg
   xmlns:dc="http://purl.org/dc/elements/1.1/"
   xmlns:cc="http://creativecommons.org/ns#"
   xmlns:rdf="http://www.w3.org/1999/02/22-rdf-syntax-ns#"
   xmlns:svg="http://www.w3.org/2000/svg"
   xmlns="http://www.w3.org/2000/svg"
   xmlns:sodipodi="http://sodipodi.sourceforge.net/DTD/sodipodi-0.dtd"
   xmlns:inkscape="http://www.inkscape.org/namespaces/inkscape"
   version="1.1"
   viewBox="0 0 512 512"
   id="svg2"
   inkscape:version="0.91 r13725"
   sodipodi:docname="logo.svg">
  <sodipodi:namedview
     pagecolor="#ffffff"
     bordercolor="#666666"
     borderopacity="1"
     objecttolerance="10"
     gridtolerance="10"
     guidetolerance="10"
     inkscape:pageopacity="0"
     inkscape:pageshadow="2"
     inkscape:window-width="640"
     inkscape:window-height="480"
     id="namedview14"
     showgrid="false"
     inkscape:zoom="0.60742188"
     inkscape:cx="-239.53698"
     inkscape:cy="256"
     inkscape:current-layer="svg2" />
  <defs
     id="defs4" />
  <metadata
     id="metadata6">
    <rdf:RDF>
      <cc:Work
         rdf:about="">
        <dc:format>image/svg+xml</dc:format>
        <dc:type
           rdf:resource="http://purl.org/dc/dcmitype/StillImage" />
        <dc:title />
      </cc:Work>
    </rdf:RDF>
  </metadata>
  <g
     transform="translate(-19.499999,-392.29075)"
     id="g8">
    <path
       style="fill-rule:nonzero"
       d="M 256,0 C 114.61893,0 0.00195313,114.61054 0.00195313,255.99805 0.00195313,397.37911 114.61249,511.99609 256,511.99609 c 141.38107,0 255.99805,-114.61053 255.99805,-255.99804 C 511.99805,114.61698 397.38751,0 256,0 Z m 0,64 c 106.04,0 192,85.96 192,192 0,106.04 -85.96,192 -192,192 C 149.96,448 64,362.04 64,256 64,149.96 149.96,64 256,64 Z m 0,64 c -59.65,0 -109.7607,40.79 -123.9707,96 l 247.9414,0 C 365.7607,168.787 315.647,128 256,128 Z M 132.0293,288 c 11.58049,44.98913 46.98131,80.38891 91.9707,91.96875 L 224,288 l -91.9707,0 z m 155.96875,0 0,91.9707 c 44.99,-11.58 80.3907,-46.9807 91.9707,-91.9707 L 288,288 l -0.002,0 z"
       transform="translate(19.499999,392.29075)"
       id="path10"
       inkscape:connector-curvature="0" />
  </g>
</svg>